<?xml version="1.0" encoding="UTF-8" standalone="no"?>
<!DOCTYPE svg PUBLIC "-//W3C//DTD SVG 1.1//EN"
 "http://www.w3.org/Graphics/SVG/1.1/DTD/svg11.dtd">
<!-- Generated by graphviz version 12.1.1 (20240910.0053)
 -->
<!-- Title: INFRA Pages: 1 -->
<svg width="209pt" height="296pt"
 viewBox="0.00 0.00 208.56 296.00" xmlns="http://www.w3.org/2000/svg" xmlns:xlink="http://www.w3.org/1999/xlink">
<g id="graph0" class="graph" transform="scale(1 1) rotate(0) translate(4 292)">
<title>INFRA</title>
<polygon fill="white" stroke="none" points="-4,4 -4,-292 204.56,-292 204.56,4 -4,4"/>
<!-- batch&#45;job&#45;sa -->
<g id="node1" class="node">
<title>batch&#45;job&#45;sa</title>
<path fill="#e6e6e6" stroke="black" stroke-width="2" d="M167.44,-72C167.44,-72 15.12,-72 15.12,-72 9.12,-72 3.12,-66 3.12,-60 3.12,-60 3.12,-12 3.12,-12 3.12,-6 9.12,0 15.12,0 15.12,0 167.44,0 167.44,0 173.44,0 179.44,-6 179.44,-12 179.44,-12 179.44,-60 179.44,-60 179.44,-66 173.44,-72 167.44,-72"/>
<text text-anchor="middle" x="91.28" y="-40.2" font-family="Arial" font-size="14.00">batch&#45;job&#45;sa</text>
<text text-anchor="middle" x="91.28" y="-23.4" font-family="Arial" font-size="14.00">(google_service_account)</text>
</g>
<!-- batchnews -->
<g id="node2" class="node">
<title>batchnews</title>
<path fill="#ffcfb3" stroke="black" stroke-width="2" d="M182.56,-173.45C182.56,-177.07 141.65,-180 91.28,-180 40.91,-180 0,-177.07 0,-173.45 0,-173.45 0,-114.55 0,-114.55 0,-110.93 40.91,-108 91.28,-108 141.65,-108 182.56,-110.93 182.56,-114.55 182.56,-114.55 182.56,-173.45 182.56,-173.45"/>
<path fill="none" stroke="black" stroke-width="2" d="M182.56,-173.45C182.56,-169.84 141.65,-166.91 91.28,-166.91 40.91,-166.91 0,-169.84 0,-173.45"/>
<text text-anchor="middle" x="91.28" y="-148.2" font-family="Arial" font-size="14.00">batchnews</text>
<text text-anchor="middle" x="91.28" y="-131.4" font-family="Arial" font-size="14.00">(google_bigquery_dataset)</text>
</g>
<!-- batchnews&#45;&gt;batch&#45;job&#45;sa -->
<g id="edge1" class="edge">
<title>batchnews&#45;&gt;batch&#45;job&#45;sa</title>
<path fill="none" stroke="black" d="M91.28,-107.7C91.28,-99.93 91.28,-91.57 91.28,-83.43"/>
<polygon fill="black" stroke="black" points="94.78,-83.66 91.28,-73.66 87.78,-83.66 94.78,-83.66"/>
</g>
<!-- batchnews&#45;&gt;batchnews -->
<g id="edge2" class="edge">
<title>batchnews&#45;&gt;batchnews</title>
<path fill="none" stroke="black" d="M182.96,-161.28C193.63,-158.09 200.56,-152.33 200.56,-144 200.56,-138.79 197.85,-134.59 193.22,-131.39"/>
<polygon fill="black" stroke="black" points="194.89,-128.31 184.34,-127.35 191.99,-134.68 194.89,-128.31"/>
</g>
<!-- batchnewstable -->
<g id="node3" class="node">
<title>batchnewstable</title>
<path fill="#ffcfb3" stroke="black" stroke-width="2" d="M174.78,-281.45C174.78,-285.07 137.36,-288 91.28,-288 45.21,-288 7.78,-285.07 7.78,-281.45 7.78,-281.45 7.78,-222.55 7.78,-222.55 7.78,-218.93 45.21,-216 91.28,-216 137.36,-216 174.78,-218.93 174.78,-222.55 174.78,-222.55 174.78,-281.45 174.78,-281.45"/>
<path fill="none" stroke="black" stroke-width="2" d="M174.78,-281.45C174.78,-277.84 137.36,-274.91 91.28,-274.91 45.21,-274.91 7.78,-277.84 7.78,-281.45"/>
<text text-anchor="middle" x="91.28" y="-256.2" font-family="Arial" font-size="14.00">batchnewstable</text>
<text text-anchor="middle" x="91.28" y="-239.4" font-family="Arial" font-size="14.00">(google_bigquery_table)</text>
</g>
<!-- batchnewstable&#45;&gt;batchnews -->
<g id="edge3" class="edge">
<title>batchnewstable&#45;&gt;batchnews</title>
<path fill="none" stroke="black" d="M91.28,-215.7C91.28,-207.93 91.28,-199.57 91.28,-191.43"/>
<polygon fill="black" stroke="black" points="94.78,-191.66 91.28,-181.66 87.78,-191.66 94.78,-191.66"/>
</g>
</g>
</svg>
